# AST/ASF file generated using VICON BodyLanguage
# -----------------------------------------------
:version 1.10
:name VICON
:units
  mass 1.0
  length 0.45
  angle deg
:documentation
   .ast/.asf automatically generated from VICON data using
   VICON BodyBuilder and BodyLanguage model FoxedUp or BRILLIANT.MOD
:root
   order TX TY TZ RX RY RZ
   axis XYZ
   position 0 0 0  
   orientation 0 0 0 
:bonedata
  begin
     id 1 
     name lhipjoint
     direction 0.702568 -0.596508 0.388042 
     length 2.56661 
     axis 0 0 0  XYZ
  end
  begin
     id 2 
     name lfemur
     direction 0.34202 -0.939693 0  
     length 6.58374  
     axis 0 0 20  XYZ
    dof rx ry rz
    limits (-160.0 20.0)
           (-70.0 70.0)
           (-60.0 70.0)
  end
  begin
     id 3 
     name ltibia
     direction 0.34202 -0.939693 0   
     length 6.62538   
     axis 0 0 20   XYZ
    dof rx
    limits (-10.0 170.0)
  end
  begin
     id 4 
     name lfoot
     direction 0.10455 -0.287249 0.952133   
     length 2.26699   
     axis -90 7.62852e-016 20   XYZ
    dof rx rz
    limits (-45.0 90.0)
           (-70.0 20.0)
  end
  begin
     id 5 
     name ltoes
     direction 1.53572e-011 -4.22322e-011 1   
     length 1.12949   
     axis -90 7.62852e-016 20   XYZ
    dof rx
    limits (-90.0 20.0)
  end
  begin
     id 6 
     name rhipjoint
     direction -0.728055 -0.574632 0.373811   
     length 2.66432  
     axis 0 0 0  XYZ 
  end
  begin
     id 7 
     name rfemur
     direction -0.34202 -0.939693 0   
     length 6.66732   
     axis 0 0 -20   XYZ
    dof rx ry rz
    limits (-160.0 20.0)
           (-70.0 70.0)
           (-70.0 60.0)
  end
  begin
     id 8 
     name rtibia
     direction -0.34202 -0.939693 0   
     length 6.59288   
     axis 0 0 -20   XYZ
    dof rx
    limits (-10.0 170.0)
 end
 begin
     id 9 
     name rfoot
     direction -0.119193 -0.327479 0.93731   
     length 2.38061  
     axis -90 -7.62852e-016 -20   XYZ
    dof rx rz
    limits (-45.0 90.0)
           (-20.0 70.0)
  end
  begin
     id 10 
     name rtoes
     direction -1.53547e-011 -4.21827e-011 1   
     length 1.17899   
     axis -90 -7.62852e-016 -20   XYZ
    dof rx
    limits (-90.0 20.0)
  end
  begin
     id 11 
     name lowerback
     direction -0.000416114 0.999912 -0.0132284   
     length 2.12109   
     axis 0 0 0   XYZ
    dof rx ry rz
    limits (-20.0 45.0)
           (-30.0 30.0)
           (-30.0 30.0)
  end
  begin
     id 12 
     name upperback
     direction -0.00136371 0.99809 0.0617608   
     length 2.10067   
     axis 0 0 0   XYZ
    dof rx ry rz
    limits (-20.0 45.0)
           (-30.0 30.0)
           (-30.0 30.0)
  end
  begin
     id 13 
     name thorax
     direction -3.43026e-005 0.997776 0.0666515   
     length 2.10618   
     axis 0 0 0   XYZ
    dof rx ry rz
    limits (-20.0 45.0)
           (-30.0 30.0)
           (-30.0 30.0)
  end
  begin
     id 14 
     name lowerneck
     direction 0.0398646 0.998418 0.0396592   
     length 1.83817   
     axis 0 0 0   XYZ
    dof rx ry rz
    limits (-20.0 45.0)
           (-30.0 30.0)
           (-30.0 30.0)
  end
  begin
     id 15 
     name upperneck
     direction -0.0367268 0.961527 -0.272244   
     length 1.81975   
     axis 0 0 0   XYZ
    dof rx ry rz
    limits (-20.0 45.0)
           (-30.0 30.0)
           (-30.0 30.0)
  end
  begin
     id 16
     name head
     direction -0.0182665 0.99536 -0.0944669  
     length 1.86026  
     axis 0 0 0   XYZ
    dof rx ry rz
    limits (-20.0 45.0)
           (-30.0 30.0)
           (-30.0 30.0)
  end
  begin
     id 17 
     name lclavicle
     direction 0.924239 0.361045 0.124212  
     length 3.26878  
     axis 0 0 0   XYZ
    dof ry rz
    limits (-20.0 10.0)
           (0.0 20.0)
  end
  begin
     id 18 
     name lhumerus
     direction 1 -4.48968e-011 -2.56583e-027   
     length 4.58538   
     axis 180 -30 -90   XYZ
    dof rx ry rz
    limits (-60.0 90.0)
           (-90.0 90.0)
           (-90.0 90.0)
  end
  begin
     id 19
     name lradius
     direction 1 -4.4898e-011 -5.50375e-027   
     length 2.68935   
     axis 180 -30 -90   XYZ
    dof rx
    limits (-10.0 170.0)
  end
  begin
     id 20
     name lwrist
     direction 1 -4.48939e-011 -1.48955e-026   
     length 1.34468   
     axis 9.0955e-015 90 90   XYZ
    dof ry
    limits (-180.0 0.0)
 end
  begin
     id 21 
     name lhand
     direction 1 -4.48936e-011 -2.97907e-026   
     length 0.585058   
     axis 1.90115e-014 90 90   XYZ
    dof rx rz
    limits (-90.0 90.0)
           (-45.0 45.0)
  end
  begin
     id 22 
     name lfingers
     direction 1 -4.49082e-011 -5.96235e-026   
     length 0.471689   
     axis 3.80223e-014 90 90   XYZ
    dof rx
    limits (0.0 90.0)
  end
  begin
     id 23
     name lthumb
     direction 0.707107 -6.3489e-011 0.707107   
     length 0.677253   
     axis -90 45 -3.84942e-014   XYZ
    dof rx rz
    limits (-45.0 45.0)
           (-45.0 45.0)
  end
  begin
     id 24 
     name rclavicle
     direction -0.923098 0.371783 0.0983239   
     length 3.19656  
     axis 0 0 0   XYZ 
    dof ry rz
    limits (-10.0 20.0)
           (-20.0 0.0)
  end
  begin
     id 25 
     name rhumerus
     direction -1 -4.48976e-011 -2.5492e-027  
     length 4.4745   
     axis 180 30 90   XYZ
    dof rx ry rz
    limits (-90.0 60.0)
           (-90.0 90.0)
           (-90.0 90.0)
  end
  begin
     id 26 
     name rradius
     direction -1 -4.48941e-011 -4.36555e-027   
     length 2.93896   
     axis 180 30 90   XYZ
    dof rx
    limits (-10.0 170.0)
  end
  begin
     id 27 
     name rwrist
     direction -1 -4.49044e-011 -1.49032e-026   
     length 1.46948   
     axis 9.0955e-015 -90 -90   XYZ
    dof ry
    limits (-180.0 0.0)
  end
  begin
     id 28
     name rhand
     direction -1 -4.48826e-011 -2.97749e-026   
     length 0.405092   
     axis 1.90115e-014 -90 -90   XYZ
    dof rx rz
    limits (-90.0 90.0)
           (-45.0 45.0)
  end
  begin
     id 29
     name rfingers
     direction -1 -4.49209e-011 -5.96602e-026   
     length 0.326596   
     axis 3.80223e-014 -90 -90   XYZ
    dof rx
    limits (0.0 90.0)
  end
  begin
     id 30
     name rthumb
     direction -0.707107 -6.34776e-011 0.707107   
     length 0.468928   
     axis -90 -45 3.84942e-014   XYZ
    dof rx rz
    limits (-45.0 45.0)
           (-45.0 45.0)
  end
:hierarchy
  begin
    root lhipjoint rhipjoint lowerback
    lhipjoint lfemur
    lfemur ltibia
    ltibia lfoot
    lfoot ltoes
    rhipjoint rfemur
    rfemur rtibia
    rtibia rfoot
    rfoot rtoes
    lowerback upperback
    upperback thorax
    thorax lowerneck lclavicle rclavicle
    lowerneck upperneck
    upperneck head
    lclavicle lhumerus
    lhumerus lradius
    lradius lwrist
    lwrist lhand lthumb
    lhand lfingers
    rclavicle rhumerus
    rhumerus rradius
    rradius rwrist
    rwrist rhand rthumb
    rhand rfingers
  end

#!OML:ASF H:\Punching\Project 1\Capture day 1\Session 1\female.ASF
:FULLY-SPECIFIED
:DEGREES
213
root 0.718667 15.1399 3.54658 14.9684 10.5003 -0.150339
lowerback -2.71847 5.47392 2.52649
upperback -7.41107 7.28545 -2.87144
thorax -5.50407 3.44034 -4.50838
lowerneck -7.24184 -1.54938 7.17753
upperneck 27.1023 -4.11629 3.3089
head 9.7439 -0.741865 -0.478021
rclavicle 2.94388e-014 3.02153e-014
rhumerus 34.8853 9.83196 -75.4823
rradius 84.007
rwrist -48.0968
rhand -17.95 -25.4701
rfingers 7.12502
rthumb 8.31855 -55.2863
lclavicle 2.94388e-014 3.02153e-014
lhumerus 18.3635 -39.2743 76.8882
lradius 137.284
lwrist 1.71322
lhand -30.8295 5.79814
lfingers 7.12502
lthumb -4.11847 35.7381
rfemur 15.2238 -8.502 14.3931
rtibia -1.27222e-014
rfoot -14.0566 -27.0597
rtoes -9.623
lfemur -45.2494 -5.79626 -11.978
ltibia 40.236
lfoot -7.32165 8.30503
ltoes -0.0891673
214
root 0.723974 15.1525 3.53596 14.884 8.90467 -0.279134
lowerback -2.60863 5.29712 2.28391
upperback -7.36048 7.044 -2.83355
thorax -5.56604 3.32981 -4.3452
lowerneck -7.15821 -0.872518 7.89323
upperneck 27.3769 -3.27701 3.21594
head 9.84118 -0.283729 -0.54574
rclavicle -2.29224e-014 -1.23246e-014
rhumerus 32.6583 10.9809 -76.5125
rradius 89.2525
rwrist -49.6283
rhand -16.9919 -24.4649
rfingers 7.12502
rthumb 9.24316 -54.2423
lclavicle -2.29224e-014 -1.23246e-014
lhumerus 18.4566 -39.1289 76.5845
lradius 137.259
lwrist 1.59814
lhand -31.1695 5.58464
lfingers 7.12502
lthumb -4.44682 35.518
rfemur 14.7974 -7.07635 14.2843
rtibia 0
rfoot -13.7829 -27.5094
rtoes -10.5128
lfemur -44.811 -5.26225 -11.753
ltibia 40.3486
lfoot -7.54827 9.14749
ltoes -0.209675
215
root 0.728781 15.1644 3.52498 14.7903 7.29668 -0.381908
lowerback -2.46583 5.0958 1.99955
upperback -7.3187 6.7687 -2.80584
thorax -5.66032 3.20345 -4.17238
lowerneck -7.01517 -0.194947 8.62699
upperneck 27.6198 -2.43273 3.13138
head 9.92519 0.17693 -0.611763
rclavicle -5.96354e-014 -1.82882e-014
rhumerus 30.3075 12.0843 -77.6047
rradius 94.3095
rwrist -50.7848
rhand -15.7844 -23.2111
rfingers 7.12502
rthumb 10.4082 -52.9335
lclavicle -5.96354e-014 -1.82882e-014
lhumerus 18.5541 -38.925 76.2374
lradius 137.244
lwrist 1.54997
lhand -31.3647 5.3631
lfingers 7.12502
lthumb -4.63529 35.2924
rfemur 14.3836 -5.6416 14.1438
rtibia 5.08889e-014
rfoot -13.5218 -27.9551
rtoes -11.3602
lfemur -44.3684 -4.70408 -11.5587
ltibia 40.5002
lfoot -7.76809 9.91732
ltoes -0.354178
216
root 0.733282 15.1754 3.5137 14.6853 5.68593 -0.463717
lowerback -2.29136 4.87144 1.68165
upperback -7.28304 6.46104 -2.78779
thorax -5.7816 3.06197 -3.99265
lowerneck -6.82854 0.47984 9.37664
upperneck 27.837 -1.58818 3.05132
head 10.001 0.637817 -0.677898
rclavicle 6.92019e-015 -1.35174e-014
rhumerus 27.8628 13.1376 -78.7254
rradius 99.1457
rwrist -51.6847
rhand -14.3221 -21.7607
rfingers 7.12502
rthumb 11.8185 -51.4073
lclavicle 6.92019e-015 -1.35174e-014
lhumerus 18.6529 -38.6526 75.8518
lradius 137.259
lwrist 1.64369
lhand -31.3888 5.0519
lfingers 7.12502
lthumb -4.65861 34.9807
rfemur 13.1746 -4.23361 14.0789
rtibia 1.61282
rfoot -14.2071 -28.3587
rtoes -12.1545
lfemur -43.9243 -4.12541 -11.3884
ltibia 40.6901
lfoot -7.98293 10.6056
ltoes -0.501579
217
root 0.737695 15.185 3.502 14.5698 4.08859 -0.538474
lowerback -2.07651 4.63645 1.36033
upperback -7.2676 6.13741 -2.78531
thorax -5.94446 2.91155 -3.82977
lowerneck -6.58943 1.13474 10.131
upperneck 28.039 -0.765019 2.98144
head 10.0701 1.08907 -0.74259
rclavicle -8.17502e-015 9.54166e-015
rhumerus 25.336 14.1185 -79.8357
rradius 103.742
rwrist -52.4434
rhand -12.6493 -20.2139
rfingers 7.12502
rthumb 13.4313 -49.7609
lclavicle -8.17502e-015 9.54166e-015
lhumerus 18.7293 -38.3577 75.4466
lradius 137.321
lwrist 1.86885
lhand -31.2812 4.71868
lfingers 7.12502
lthumb -4.55471 34.6497
rfemur 11.5436 -2.83639 14.0132
rtibia 4.10822
rfoot -15.4103 -28.7232
rtoes -12.9247
lfemur -43.4878 -3.53799 -11.2222
ltibia 40.9187
lfoot -8.20403 11.2097
ltoes -0.64518
218
root 0.742428 15.1929 3.49009 14.446 2.52391 -0.623192
lowerback -1.83481 4.38957 1.0516
upperback -7.25386 5.79637 -2.78472
thorax -6.12139 2.75197 -3.67492
lowerneck -6.35366 1.77286 10.8757
upperneck 28.2297 0.0379182 2.91465
head 10.1437 1.52964 -0.805729
rclavicle -5.61877e-014 3.02153e-014
rhumerus 22.8177 15.0359 -80.8814
rradius 108.086
rwrist -53.1651
rhand -10.9298 -18.7568
rfingers 7.12502
rthumb 15.0881 -48.1869
lclavicle -5.61877e-014 3.02153e-014
lhumerus 18.8282 -38.0361 75.0117
lradius 137.42
lwrist 2.20846
lhand -31.0992 4.35085
lfingers 7.12502
lthumb -4.37896 34.2856
rfemur 10.4754 -1.43659 13.8526
rtibia 5.51662
rfoot -16.0063 -29.0715
rtoes -13.6572
lfemur -43.0662 -2.94777 -11.0422
ltibia 41.185
lfoot -8.44113 11.7255
ltoes -0.779609
219
root 0.748304 15.1986 3.47864 14.3139 1.01355 -0.741197
lowerback -1.57534 4.13698 0.798471
upperback -7.24122 5.44728 -2.78195
thorax -6.3025 2.5859 -3.54641
lowerneck -6.12012 2.3872 11.6028
upperneck 28.4065 0.814066 2.84516
head 10.2195 1.95495 -0.868503
rclavicle -9.68454e-015 -2.22639e-014
rhumerus 20.344 15.8851 -81.8421
rradius 112.187
rwrist -53.9083
rhand -9.31596 -17.5424
rfingers 7.12502
rthumb 16.6423 -46.8489
lclavicle -9.68454e-015 -2.22639e-014
lhumerus 18.9371 -37.7126 74.5606
lradius 137.567
lwrist 2.63641
lhand -30.8742 3.99312
lfingers 7.12502
lthumb -4.16168 33.9322
rfemur 9.64027 -0.0648649 13.6748
rtibia 6.5003
rfoot -16.3223 -29.3762
rtoes -14.4422
lfemur -42.6591 -2.37063 -10.8235
ltibia 41.486
lfoot -8.70581 12.1647
ltoes -0.916532
220
root 0.755684 15.202 3.46758 14.1847 -0.420355 -0.910794
lowerback -1.3057 3.87984 0.624389
upperback -7.2245 5.09341 -2.76548
thorax -6.47749 2.41416 -3.44417
lowerneck -5.91329 2.97697 12.2975
upperneck 28.5642 1.56338 2.76406
head 10.2991 2.36239 -0.931286
rclavicle -3.762e-014 1.43125e-014
rhumerus 17.971 16.6645 -82.6954
rradius 116.061
rwrist -54.7096
rhand -7.97051 -16.6963
rfingers 7.12502
rthumb 17.9372 -45.8891
lclavicle -3.762e-014 1.43125e-014
lhumerus 19.0665 -37.4058 74.096
lradius 137.736
lwrist 3.05713
lhand -30.7263 3.67082
lfingers 7.12502
lthumb -4.01887 33.6127
rfemur 8.96986 1.25108 13.5173
rtibia 7.18091
rfoot -16.4552 -29.6126
rtoes -15.1994
lfemur -42.2774 -1.82213 -10.5463
ltibia 41.814
lfoot -8.99798 12.5431
ltoes -1.07126
221
root 0.764876 15.203 3.45745 14.0634 -1.74909 -1.13559
lowerback -1.03493 3.61452 0.539963
upperback -7.20052 4.73146 -2.72822
thorax -6.63862 2.23475 -3.36572
lowerneck -5.73058 3.54192 12.9598
upperneck 28.6961 2.29085 2.65308
head 10.3785 2.75186 -0.999994
rclavicle 2.83392e-014 1.43125e-014
rhumerus 15.7296 17.3663 -83.4415
rradius 119.726
rwrist -55.593
rhand -6.99344 -16.2086
rfingers 7.12502
rthumb 18.8771 -45.3127
lclavicle 2.83392e-014 1.43125e-014
lhumerus 19.1992 -37.1043 73.6392
lradius 137.937
lwrist 3.46946
lhand -30.6344 3.41293
lfingers 7.12502
lthumb -3.93009 33.3564
rfemur 8.44671 2.4935 13.4017
rtibia 7.61196
rfoot -16.4266 -29.7815
rtoes -15.9549
lfemur -41.9222 -1.32892 -10.2087
ltibia 42.1579
lfoot -9.3193 12.8861
ltoes -1.26273
222
root 0.775897 15.2016 3.44822 13.9578 -2.94529 -1.40527
lowerback -0.772665 3.33294 0.532476
upperback -7.16252 4.35176 -2.66151
thorax -6.77629 2.04395 -3.29369
lowerneck -5.5782 4.08355 13.5856
upperneck 28.7918 3.00394 2.49117
head 10.4547 3.12363 -1.08071
rclavicle -1.27595e-014 -2.62396e-014
rhumerus 13.6771 17.9838 -84.073
rradius 123.172
rwrist -56.5226
rhand -6.39156 -16.0222
rfingers 7.12502
rthumb 19.4559 -45.0688
lclavicle -1.27595e-014 -2.62396e-014
lhumerus 19.3299 -36.7927 73.205
lradius 138.159
lwrist 3.86885
lhand -30.5921 3.18945
lfingers 7.12502
lthumb -3.88928 33.1337
rfemur 8.04592 3.62279 13.3319
rtibia 7.85005
rfoot -16.2855 -29.8739
rtoes -16.6895
lfemur -41.6007 -0.913665 -9.82665
ltibia 42.5026
lfoot -9.66368 13.218
ltoes -1.45763
